<svg xmlns="http://www.w3.org/2000/svg" version="1.1"><polyline points="71.0,5.5,56.5,13.5,46.5,21.5,41.0,29.0,35.5,37.0,29.5,45.0,26.0,53.0,24.5,61.5,24.0,69.5,24.5,77.5,23.5,85.5,20.5,93.5,16.0,101.5,13.0,110.0,12.0,118.5,12.0,126.5,13.0,135.0,14.0,143.5,16.0,151.5,16.5,159.5,17.0,167.0,16.5,175.5,17.5,183.5,18.0,191.0,19.0,198.5,20.0,206.5,20.0,214.5,22.5,223.0,29.5,231.0,40.0,239.5" stroke="black" stroke-width="2" fill="none"/>
<polyline points="42.0,236.0,50.0,235.5,58.5,236.0,66.5,236.0,75.0,235.5,83.5,235.5,91.5,234.5,100.0,233.5,108.5,233.0,116.0,232.5,123.5,232.0,131.5,231.5,139.5,231.0" stroke="black" stroke-width="2" fill="none"/>
<polyline points="123.0,241.5,130.5,234.5,139.0,226.5,147.0,219.0,155.0,212.0,162.5,204.5,170.5,197.0" stroke="black" stroke-width="2" fill="none"/>
<polyline points="171.0,187.0,163.0,195.0,155.0,202.5,147.5,210.0,139.5,217.0,131.5,224.5,123.5,232.5,116.5,240.5,108.5,248.5" stroke="black" stroke-width="2" fill="none"/>
<polyline points="92.5,245.5,101.0,237.5,109.0,229.5,117.0,222.0,124.5,215.0,132.0,208.5,139.5,201.5,147.0,194.0,154.5,186.5,162.5,178.0,170.5,170.0,178.0,162.0,186.0,155.0" stroke="black" stroke-width="2" fill="none"/>
<polyline points="188.0,148.0,179.5,155.5,171.5,162.5,163.5,170.0,155.5,177.0,148.0,184.5,140.0,192.0,132.5,199.5,124.5,206.5,116.0,214.0,108.0,221.0,100.0,228.5,91.5,236.5,83.0,244.5" stroke="black" stroke-width="2" fill="none"/>
<polyline points="76.0,246.0,84.0,238.0,92.0,231.0,99.5,223.5,107.0,215.5,114.5,207.5,122.5,200.0,130.5,192.5,139.5,185.0,148.0,178.0,156.5,170.5,164.0,162.5,172.0,154.5,179.5,147.0,187.0,139.0,194.5,131.5" stroke="black" stroke-width="2" fill="none"/>
<polyline points="204.5,114.0,196.5,121.5,188.0,129.0,180.0,137.0,171.5,145.0,163.5,152.5,155.5,160.5,147.0,168.5,138.5,176.5,131.0,184.5,123.0,192.5,115.0,200.0,107.0,207.0,99.0,214.5,91.0,221.5,83.0,229.0,75.0,236.0" stroke="black" stroke-width="2" fill="none"/>
<polyline points="66.0,236.0,74.0,229.0,82.0,222.0,89.5,214.5,97.0,206.5,105.0,199.0,112.5,191.5,120.5,184.0,128.5,176.0,137.0,168.5,145.5,161.0,154.0,154.0,163.0,146.5,171.5,139.0,180.5,130.5,189.0,122.5,198.0,114.5,206.0,107.5" stroke="black" stroke-width="2" fill="none"/>
<polyline points="194.0,106.5,186.5,114.5,178.0,122.5,170.0,131.0,162.5,139.0,155.0,147.0,147.5,154.5,139.5,162.0,132.0,169.5,124.5,177.0,117.0,184.0,108.5,191.5,101.0,199.0,93.0,206.5,84.5,213.5,76.5,220.5,68.5,228.0,60.5,236.0" stroke="black" stroke-width="2" fill="none"/>
<polyline points="59.5,244.0,68.0,243.0,76.5,243.0,84.0,243.0,91.0,242.0,98.5,241.0,106.5,240.5,114.0,240.0,121.5,239.5" stroke="black" stroke-width="2" fill="none"/>
<polyline points="99.5,245.5,107.5,238.0,116.0,231.0,124.0,223.0,132.5,215.5,140.0,207.5,148.0,200.0,155.0,193.0,162.5,186.0,170.0,178.5,178.0,171.5" stroke="black" stroke-width="2" fill="none"/>
<polyline points="165.0,210.5,157.0,218.0,149.0,225.5,140.5,232.5" stroke="black" stroke-width="2" fill="none"/>
<polyline points="99.0,250.0,91.0,251.0" stroke="black" stroke-width="2" fill="none"/>
<polyline points="123.5,236.0,115.0,236.5,106.5,237.5,98.0,238.0,89.5,239.5,82.0,240.5,74.0,241.0,66.0,241.5,57.5,242.0,49.5,242.5" stroke="black" stroke-width="2" fill="none"/>
<polyline points="50.5,235.5,59.5,228.5,68.0,221.5,76.0,214.5,84.5,207.0,93.5,199.5,101.5,192.0,109.5,184.0,117.5,176.5,125.5,169.0,132.5,161.0,140.0,153.0,147.0,145.5,154.5,138.0,162.0,130.0,169.5,122.0,177.0,114.5,185.5,106.5,194.0,99.0" stroke="black" stroke-width="2" fill="none"/>
<polyline points="195.0,91.0,186.5,98.5,178.5,106.0,170.0,114.0,162.5,122.0,155.0,130.0,147.5,137.5,140.0,145.0,132.5,153.0,124.5,161.5,116.5,169.0,109.0,176.0,101.0,183.5,92.5,190.5,83.5,197.5,74.5,205.5,66.5,213.0,58.5,220.0,50.0,227.5,42.5,235.0" stroke="black" stroke-width="2" fill="none"/>
<polyline points="37.0,235.5,45.0,235.5,52.5,235.0,60.0,234.0,67.5,233.0,75.5,231.5,82.5,230.5,90.0,229.5,97.5,228.0,105.5,227.0,113.5,226.0,121.0,226.0,129.0,226.0,137.0,226.5,145.0,226.5" stroke="black" stroke-width="2" fill="none"/>
<polyline points="131.0,137.0,139.5,136.5,147.0,136.0,155.0,135.5,163.5,135.5,171.5,135.0,179.5,134.0" stroke="black" stroke-width="2" fill="none"/>
<polyline points="188.0,92.0,180.0,99.0,171.5,106.0,163.5,113.0,155.5,120.0,147.5,127.5,140.0,135.0,132.0,142.5,123.5,150.0,115.0,157.5,107.0,165.0,99.0,172.5,92.0,180.5,84.0,188.0,76.0,195.5,68.0,202.5,60.0,210.5,52.0,218.0,44.0,225.0" stroke="black" stroke-width="2" fill="none"/>
<polyline points="35.0,227.5,43.0,219.5,51.0,211.5,59.0,204.0,67.0,196.5,75.0,188.5,83.0,181.0,91.0,173.5,99.0,165.5,107.5,159.0,116.0,152.0,124.0,144.5,132.0,137.0,140.0,129.5,147.5,122.0,155.0,114.5,162.0,106.5,170.0,99.0,178.0,91.0" stroke="black" stroke-width="2" fill="none"/>
<polyline points="179.0,85.0,171.0,92.0,162.5,99.0,154.0,107.0,146.0,114.5,137.5,122.5,130.0,130.0,122.0,137.0,114.0,144.0,105.5,151.0,97.5,158.5,90.0,166.0,82.0,174.0,74.0,182.0,66.0,190.0,58.5,197.5,50.5,205.0,42.0,212.5,34.5,220.0" stroke="black" stroke-width="2" fill="none"/>
<polyline points="26.5,220.5,34.5,220.5,42.5,220.5,50.0,220.5,57.5,220.0,65.5,219.0,73.5,219.0,81.5,218.0,89.5,217.5,97.5,217.5,105.5,217.0,114.0,216.5,122.5,215.5,131.0,214.5,139.0,214.0,147.0,214.0,155.5,212.5" stroke="black" stroke-width="2" fill="none"/>
<polyline points="130.0,129.5,138.0,129.0,146.5,129.0,154.5,128.5,163.0,128.0,171.0,127.0,179.0,127.0" stroke="black" stroke-width="2" fill="none"/>
<polyline points="172.0,83.0,164.0,90.5,156.0,98.5,148.5,106.5,140.5,113.5,133.0,121.0,124.5,128.5,116.0,136.0,107.5,143.0,99.5,150.0,91.0,157.0,83.0,164.5,75.0,172.0,67.5,180.0,59.0,187.5,51.0,195.0,42.5,203.0,34.5,210.5,26.5,218.5" stroke="black" stroke-width="2" fill="none"/>
<polyline points="25.0,216.5,33.5,216.0,42.5,215.5,51.0,215.0,59.5,215.0,67.5,215.0,75.5,214.5,83.0,213.5,91.0,213.0,98.0,213.0,106.0,212.5,114.5,212.0,123.0,211.5,131.0,211.5,139.0,211.0,147.5,210.5,155.5,209.5" stroke="black" stroke-width="2" fill="none"/>
<polyline points="172.5,120.5,164.0,120.5,156.0,121.0,148.0,121.0,140.0,121.5,132.0,121.5" stroke="black" stroke-width="2" fill="none"/>
<polyline points="131.5,113.0,139.5,113.0,147.5,112.5,156.0,112.0,164.0,111.5,172.0,111.0" stroke="black" stroke-width="2" fill="none"/>
<polyline points="164.5,83.5,156.5,90.5,148.5,98.0,140.5,105.0,132.0,112.0,123.5,119.5,115.5,127.0,107.0,134.5,99.0,142.5,91.0,150.0,83.0,157.5,75.0,165.0,66.5,172.5,58.5,180.5,50.5,188.5,42.5,196.5,34.5,204.0,26.5,211.5" stroke="black" stroke-width="2" fill="none"/>
<polyline points="27.0,207.5,35.0,207.0,43.5,207.5,52.0,207.5,60.0,207.0,68.5,206.5,76.0,206.5,84.0,206.5,91.5,206.0,99.5,205.0,107.0,204.0,115.5,203.5,123.0,203.0,131.0,202.5,139.5,202.5,147.5,202.0,155.5,201.0,163.0,200.0" stroke="black" stroke-width="2" fill="none"/>
<polyline points="114.0,104.0,105.5,104.0,97.5,104.5,90.0,105.5,82.5,106.0" stroke="black" stroke-width="2" fill="none"/>
<polyline points="76.0,112.0,84.0,112.0,92.0,111.0,100.5,111.0,108.5,111.0,117.5,111.0" stroke="black" stroke-width="2" fill="none"/>
<polyline points="108.0,136.5,99.5,136.5,91.0,137.0,82.5,137.0,74.5,137.5" stroke="black" stroke-width="2" fill="none"/>
<polyline points="76.5,131.5,84.0,131.0,92.0,130.5,99.5,129.5" stroke="black" stroke-width="2" fill="none"/>
<polyline points="108.5,120.0,100.0,120.5,92.0,121.5,84.0,122.5,76.0,123.0" stroke="black" stroke-width="2" fill="none"/>
<polyline points="75.0,103.5,67.0,104.5,59.0,104.5" stroke="black" stroke-width="2" fill="none"/>
<polyline points="61.0,90.0,68.5,89.0,76.5,88.0,84.0,87.0,91.0,87.0,99.0,86.5,107.5,86.0,116.0,86.0" stroke="black" stroke-width="2" fill="none"/>
<polyline points="150.0,59.0,142.0,66.0,134.0,73.5,126.0,81.0,117.5,88.0,109.0,95.0,100.5,102.5,92.0,109.5,83.0,117.0,75.0,125.0,67.0,132.5,59.0,140.0,51.0,147.5,43.0,156.0,35.0,164.0,26.5,172.0,19.0,179.5" stroke="black" stroke-width="2" fill="none"/>
<polyline points="21.5,178.0,29.0,177.5,36.5,176.5,44.5,175.5,52.5,174.5,60.0,173.5,67.5,173.0,75.0,172.5,82.5,172.0,90.5,171.5,98.0,171.0,106.0,170.5,114.5,171.0,122.5,171.0,131.0,170.5,139.5,170.5,147.5,169.5,156.0,168.5,164.5,168.0,172.0,167.5" stroke="black" stroke-width="2" fill="none"/>
<polyline points="163.0,74.0,155.5,81.5,147.5,89.0,140.0,96.5,132.5,104.5,125.0,112.5,117.0,120.0,109.0,127.5,100.5,135.5,92.5,144.0,84.5,151.5,76.5,158.5,68.0,165.5,59.5,173.0,51.0,180.5,43.0,188.5,34.5,196.0,26.5,203.5" stroke="black" stroke-width="2" fill="none"/>
<polyline points="28.5,201.0,36.0,200.5,43.5,199.5,51.5,199.0,59.5,198.5,67.0,198.0,75.0,198.0,83.5,197.5,91.0,197.5,98.5,197.5,106.0,196.5,114.0,196.0,122.5,196.0,130.5,195.5,139.0,195.0,147.0,194.0,155.0,194.0,162.5,193.5" stroke="black" stroke-width="2" fill="none"/>
<polyline points="274.0,149.0,282.5,148.5,291.0,148.5,299.5,148.5,307.5,148.0,315.5,147.5,323.5,147.5,331.0,147.5,339.0,147.5,347.5,147.5,355.5,147.0,363.0,146.0,371.0,145.5,379.5,144.5,388.0,143.5,396.5,142.5,404.0,142.0,412.0,141.0,420.0,140.0" stroke="black" stroke-width="2" fill="none"/>
<polyline points="411.0,138.0,403.0,145.5,395.0,153.0,387.5,161.0,379.0,168.5,371.0,176.0,362.5,184.0,354.5,191.5,346.5,199.5,338.5,208.0,330.0,215.5" stroke="black" stroke-width="2" fill="none"/>
<polyline points="331.5,219.5,339.5,218.5,347.5,217.5,355.0,216.0,363.5,215.5,371.5,214.5,379.0,213.5,387.0,213.0,395.0,212.5,403.0,212.5,411.5,212.0" stroke="black" stroke-width="2" fill="none"/>
<polyline points="411.5,210.5,403.5,218.0,395.5,226.5,387.5,234.0,379.0,241.5,371.0,248.5,362.5,256.0,354.5,263.5" stroke="black" stroke-width="2" fill="none"/>
<polyline points="356.0,268.0,363.5,268.0,371.5,267.5,379.5,267.5,388.0,267.5,396.5,267.0,405.0,267.0,413.5,267.5,422.0,267.5,430.0,267.0,438.0,266.0,446.0,265.5,454.0,265.0" stroke="black" stroke-width="2" fill="none"/>
<polyline points="452.0,261.5,444.0,268.5,435.5,275.5,427.0,283.0,418.0,290.5" stroke="black" stroke-width="2" fill="none"/>
<polyline points="428.5,292.5,436.5,284.5,444.5,277.0,452.5,269.0" stroke="black" stroke-width="2" fill="none"/>
<polyline points="453.0,262.5,445.0,263.0" stroke="black" stroke-width="2" fill="none"/>
<polyline points="444.0,251.5,436.0,259.5,428.0,267.0,420.5,274.5,412.5,281.5,405.0,289.0" stroke="black" stroke-width="2" fill="none"/>
<polyline points="405.5,291.0,413.0,290.5,421.0,289.5,429.0,289.0" stroke="black" stroke-width="2" fill="none"/>
<polyline points="435.0,272.5,443.0,272.0" stroke="black" stroke-width="2" fill="none"/>
<polyline points="442.0,257.0,433.0,257.5" stroke="black" stroke-width="2" fill="none"/>
<polyline points="427.5,248.0,435.5,248.0,443.5,247.5" stroke="black" stroke-width="2" fill="none"/>
<polyline points="445.0,244.0,436.5,251.0,428.5,258.0,420.5,265.5,412.5,273.0,404.0,281.0,396.0,289.0" stroke="black" stroke-width="2" fill="none"/>
<polyline points="397.0,280.5,405.5,272.5,413.5,265.0,421.0,257.5,429.0,250.0,437.0,242.5,445.0,235.0" stroke="black" stroke-width="2" fill="none"/>
<polyline points="435.5,235.5,427.0,243.0,419.5,250.5,411.5,258.0,403.0,265.0,395.0,272.0,387.5,280.0" stroke="black" stroke-width="2" fill="none"/>
<polyline points="386.5,285.0,395.0,284.5,403.0,284.5,411.0,283.5,419.0,283.0,426.5,282.5,435.0,282.5,443.5,281.5" stroke="black" stroke-width="2" fill="none"/>
<polyline points="450.0,251.5,442.5,259.0,434.5,266.0,427.0,273.0,419.0,280.5,411.0,288.5" stroke="black" stroke-width="2" fill="none"/>
<polyline points="381.0,280.5,389.0,273.0,396.5,265.5,405.0,258.0,413.0,251.0,420.5,243.5,428.5,235.5,436.5,228.0" stroke="black" stroke-width="2" fill="none"/>
<polyline points="429.0,229.5,421.0,237.0,412.5,244.0,404.5,251.0,397.0,258.5,388.5,266.0,380.5,273.0,372.0,280.0" stroke="black" stroke-width="2" fill="none"/>
<polyline points="372.0,272.0,380.0,264.5,388.5,257.5,397.0,250.5,405.5,243.0,414.5,235.5,422.5,227.5" stroke="black" stroke-width="2" fill="none"/>
<polyline points="420.0,232.5,428.0,232.0" stroke="black" stroke-width="2" fill="none"/>
<polyline points="428.0,239.5,436.0,239.0" stroke="black" stroke-width="2" fill="none"/>
<polyline points="421.0,218.5,413.0,226.0,404.5,233.5,397.0,241.0,389.0,248.5,381.0,256.0,372.5,263.5,364.5,271.5" stroke="black" stroke-width="2" fill="none"/>
<polyline points="364.5,273.5,372.0,273.0,379.5,272.0,387.5,271.0,395.5,270.0,403.5,269.0" stroke="black" stroke-width="2" fill="none"/>
<polyline points="380.0,282.0,388.0,281.0,396.0,281.0,404.5,280.5,413.0,280.0,421.5,280.0,429.0,279.5,437.0,278.5,445.0,277.5" stroke="black" stroke-width="2" fill="none"/>
<polyline points="411.0,218.0,403.0,225.5,396.0,233.5,388.0,241.0,380.0,248.5,372.0,255.5,364.0,263.5,356.0,271.0" stroke="black" stroke-width="2" fill="none"/>
<polyline points="348.5,266.5,356.5,265.5,364.0,265.0,372.0,264.5,380.0,264.0,388.0,264.0,396.5,263.5,404.5,263.0,413.0,262.5" stroke="black" stroke-width="2" fill="none"/>
<polyline points="452.5,271.5,444.5,272.5,436.0,273.0,428.5,274.0,421.0,274.5,413.0,274.5,405.0,275.0,397.0,275.5,388.5,275.5,380.5,275.5,373.0,276.0,365.0,276.0" stroke="black" stroke-width="2" fill="none"/>
<polyline points="347.0,264.5,355.0,256.5,363.0,248.5,371.0,241.0,379.0,233.5,387.0,225.5,395.0,218.0,403.0,210.5,411.0,202.5" stroke="black" stroke-width="2" fill="none"/>
<polyline points="409.5,195.5,402.0,203.0,394.0,211.0,386.0,219.0,378.0,227.0,370.5,234.5,362.5,242.0,354.0,249.5,346.5,257.0" stroke="black" stroke-width="2" fill="none"/>
<polyline points="339.5,258.5,347.5,258.0,355.5,257.5,363.0,256.5,370.5,256.0,378.5,255.0,386.5,254.0,395.0,253.5,403.0,253.0,411.0,252.5" stroke="black" stroke-width="2" fill="none"/>
<polyline points="402.0,246.0,394.0,246.5,385.0,246.5,376.5,247.0,368.5,247.5,361.0,248.5,353.5,249.0,346.0,249.0,338.0,249.5" stroke="black" stroke-width="2" fill="none"/>
<polyline points="340.5,253.0,348.5,246.0,357.0,238.5,365.0,231.0,372.5,224.0,381.0,217.0,389.0,210.0,397.5,202.0,405.5,194.0,413.5,186.5,421.5,179.0" stroke="black" stroke-width="2" fill="none"/>
<polyline points="421.0,171.5,413.5,179.0,405.5,186.5,397.5,194.0,388.5,201.0,380.5,208.0,372.0,215.5,363.5,222.5,355.5,230.0,347.5,237.5,339.5,245.5" stroke="black" stroke-width="2" fill="none"/>
<polyline points="339.0,240.5,347.0,240.5,355.5,240.0,363.5,239.5,371.0,239.0,379.0,238.5,386.5,238.0,395.0,238.0,402.5,238.0" stroke="black" stroke-width="2" fill="none"/>
<polyline points="411.0,229.5,403.0,229.5,395.5,229.5,387.0,230.5,379.5,230.5,372.0,231.0,364.5,231.5,356.5,232.0,349.0,232.5,341.0,233.5" stroke="black" stroke-width="2" fill="none"/>
<polyline points="338.0,238.5,346.5,230.5,355.0,223.5,363.0,216.0,371.0,209.0,379.0,202.0,387.0,194.5,395.0,187.5,403.0,180.0,411.0,173.0,419.0,165.5" stroke="black" stroke-width="2" fill="none"/>
<polyline points="416.5,157.0,408.5,164.5,401.0,172.0,393.0,179.5,385.5,187.5,378.0,195.0,370.0,202.0,362.0,209.0,354.0,216.0,346.5,223.5,338.5,230.5" stroke="black" stroke-width="2" fill="none"/>
<polyline points="339.5,225.0,347.5,224.5,355.0,224.0,363.0,223.5,371.0,222.5,379.0,222.5,386.5,222.5,394.5,222.5,403.0,222.5,411.5,222.0" stroke="black" stroke-width="2" fill="none"/>
<polyline points="414.5,215.0,422.5,221.0,431.0,225.0,439.0,233.5,447.0,243.5" stroke="black" stroke-width="2" fill="none"/>
<polyline points="411.5,155.0,404.0,162.5,396.0,170.0,388.5,177.5,380.5,185.5,372.5,193.5,364.0,201.5,355.0,209.5,346.5,217.0,338.0,224.5,329.5,231.5" stroke="black" stroke-width="2" fill="none"/>
<polyline points="331.0,231.0,339.5,230.5,347.5,230.0,355.5,229.5,363.0,228.5,371.0,228.0,379.0,226.5,386.5,225.5,395.0,225.0,403.5,224.0,412.0,224.0,419.5,223.5,427.0,222.5,435.5,221.5" stroke="black" stroke-width="2" fill="none"/>
<polyline points="412.0,149.0,404.0,156.5,395.0,164.0,387.0,171.0,379.0,178.5,371.0,185.5,362.5,193.0,354.0,200.5,346.0,208.5,338.0,216.0,330.0,223.5" stroke="black" stroke-width="2" fill="none"/>
<polyline points="325.0,219.5,332.5,219.0,340.0,218.5,348.0,218.0,356.5,217.5,364.0,217.0,371.0,216.5,378.5,216.0,386.0,216.0,393.5,215.5,402.0,214.5,410.0,214.5,418.0,214.5,426.0,214.5" stroke="black" stroke-width="2" fill="none"/>
<polyline points="411.5,130.5,403.0,137.5,394.5,145.0,386.5,152.0,378.0,159.5,369.5,167.5,362.5,175.0,354.5,183.0,346.5,190.5,338.0,197.5,330.0,205.0,322.0,213.0" stroke="black" stroke-width="2" fill="none"/>
<polyline points="324.5,211.0,333.0,210.5,341.0,209.5,349.0,208.5,356.5,207.5,364.5,207.0,372.5,205.5,380.0,205.0,387.5,204.5,395.5,204.0,403.0,203.5,411.0,203.0" stroke="black" stroke-width="2" fill="none"/>
<polyline points="418.5,116.5,411.0,124.5,403.5,132.5,396.0,140.0,388.0,147.0,380.0,155.0,372.0,161.5,363.5,168.0,355.5,175.5,347.5,183.0,339.5,190.0,332.0,197.5,324.0,205.0" stroke="black" stroke-width="2" fill="none"/>
<polyline points="317.0,206.0,324.5,205.5,332.5,205.5,340.0,205.0,347.5,204.0,355.0,203.0,363.0,202.5,371.5,201.5,379.5,201.0,387.5,200.0,395.5,199.0,403.5,199.0,411.5,198.5" stroke="black" stroke-width="2" fill="none"/>
<polyline points="453.5,253.0,446.0,254.0,438.0,254.5,430.0,255.0,422.0,256.0,413.5,256.5,405.0,256.5,396.5,257.0,388.5,258.0,380.5,258.5,372.5,259.5,364.0,260.5,356.0,261.0,348.0,262.0,340.0,262.5" stroke="black" stroke-width="2" fill="none"/>
<polyline points="332.0,253.5,340.0,252.5,348.0,252.0,356.0,251.5,364.0,251.0,372.0,250.5,380.5,250.0,388.5,250.0,396.0,250.0,404.0,249.5,411.5,249.5,419.5,249.0,428.0,248.0,436.0,247.5,444.0,247.0,452.0,247.0" stroke="black" stroke-width="2" fill="none"/>
<polyline points="453.0,236.5,445.0,236.5,437.5,237.0,429.5,237.5,421.0,238.0,413.0,238.0,405.0,239.0,397.5,239.5,389.0,240.5,381.0,241.0,372.5,241.5,364.5,242.5,357.0,243.0,349.5,244.0,341.0,244.5,333.5,244.5" stroke="black" stroke-width="2" fill="none"/>
<polyline points="331.0,238.5,339.5,237.5,347.5,237.0,356.0,236.0,364.5,235.0,373.0,234.0,380.5,233.0,388.5,232.0,396.5,231.0,404.5,230.0,412.5,229.5,420.0,229.0,428.0,229.5,435.5,229.0,444.0,228.5" stroke="black" stroke-width="2" fill="none"/>
<polyline points="401.5,156.0,393.5,157.5,385.5,158.5,378.0,159.5,370.0,160.0,362.0,160.5,354.5,161.0,346.5,161.0,339.0,160.5,330.5,161.0" stroke="black" stroke-width="2" fill="none"/>
<polyline points="323.5,139.0,331.0,138.5,339.0,137.5,347.5,136.5,355.5,136.0,364.5,135.0,372.5,133.5,380.5,132.5" stroke="black" stroke-width="2" fill="none"/>
<polyline points="421.0,109.0,412.5,116.5,405.0,124.0,397.0,131.5,388.5,138.5,380.5,145.5,372.5,153.0,364.5,161.0,356.5,168.5,348.5,176.0,340.5,183.5,333.0,191.0,324.5,198.0,316.5,205.5" stroke="black" stroke-width="2" fill="none"/>
<polyline points="316.0,201.5,324.0,201.0,332.0,200.5,340.0,200.5,348.5,200.0,356.0,199.5,364.0,198.5,372.0,197.5,380.0,196.5,388.0,195.5,396.0,194.5,404.0,194.0,412.0,193.0" stroke="black" stroke-width="2" fill="none"/>
<polyline points="421.5,101.5,413.5,109.0,405.5,117.0,397.5,124.5,388.5,132.0,380.0,139.5,372.0,146.5,363.5,153.5,354.5,160.5,346.0,168.0,338.0,175.5,330.0,183.5,322.0,190.5,314.5,198.0" stroke="black" stroke-width="2" fill="none"/>
<polyline points="309.0,196.5,317.0,196.0,324.5,196.0,332.5,195.5,340.5,195.5,348.5,195.0,356.5,194.5,364.5,194.5,372.5,194.0,380.5,193.0,388.0,193.0,396.5,192.5,404.5,192.0,412.0,192.0,419.5,191.5" stroke="black" stroke-width="2" fill="none"/>
<polyline points="420.5,94.0,413.0,101.0,405.0,108.5,396.5,115.5,387.5,122.5,378.5,130.5,370.5,138.0,362.5,145.0,354.0,152.5,346.5,160.0,338.5,168.0,330.5,175.0,323.0,182.5,315.0,190.0" stroke="black" stroke-width="2" fill="none"/>
<polyline points="316.5,192.5,324.5,192.0,332.5,191.5,340.0,191.5,348.0,191.5,356.0,191.0,364.0,190.0,372.0,189.5,380.0,189.0,388.5,188.0,396.0,187.5,404.0,187.0,412.0,187.0" stroke="black" stroke-width="2" fill="none"/>
<polyline points="403.0,123.5,395.5,124.5,388.0,125.0,380.0,126.0,372.0,127.0,364.5,127.5,356.0,128.5,347.5,129.5,339.0,130.5,331.0,131.0,323.5,132.0" stroke="black" stroke-width="2" fill="none"/>
<polyline points="285.0,133.5,293.0,126.0,300.5,118.5,308.5,111.5,316.0,104.0,323.5,96.5,331.5,89.0,339.0,81.5,347.5,74.5,356.0,67.0,364.0,59.5,372.0,52.0" stroke="black" stroke-width="2" fill="none"/>
<polyline points="372.5,45.5,393.5,53.5,408.5,61.5,416.5,69.5,421.5,77.0,423.0,85.0,424.0,93.0,424.5,100.5,424.5,108.5,420.5,117.0,417.0,125.0,417.0,132.5,417.5,140.5,419.0,148.5,420.0,156.5,419.5,165.0,419.5,173.0,417.5,181.0,415.5,189.0,414.5,197.0,412.5,205.5,413.0,213.5,422.0,221.0,433.0,229.0,440.0,237.5,446.0,245.5,449.0,253.0,450.0,261.5,448.5,269.0,445.5,277.0,437.0,285.0" stroke="black" stroke-width="2" fill="none"/>
<polyline points="419.0,207.0,410.5,207.5,402.0,208.0,393.0,208.5,385.5,209.0,378.0,210.0,370.5,211.0,363.0,211.5,355.0,212.5,347.0,213.0,339.0,213.5,331.0,214.5,323.0,215.5,315.5,216.0" stroke="black" stroke-width="2" fill="none"/>
<polyline points="308.0,187.5,316.0,180.0,324.5,173.0,332.5,166.0,341.0,158.5,348.0,151.0,356.0,144.0,363.5,136.5,371.5,129.5,379.5,121.5,387.5,114.0,396.0,106.5,404.5,98.5,413.0,90.5,421.0,82.5" stroke="black" stroke-width="2" fill="none"/>
<polyline points="420.0,74.0,412.0,81.5,403.5,89.5,395.0,97.5,387.5,105.0,379.5,112.5,371.5,119.5,363.5,126.0,356.0,133.5,348.0,140.5,340.5,148.0,333.0,155.5,325.0,163.5,317.0,171.5,308.5,179.5" stroke="black" stroke-width="2" fill="none"/>
<polyline points="309.0,183.5,316.5,183.0,324.5,182.5,332.5,182.5,340.0,182.5,348.0,182.0,356.0,182.0,364.0,181.5,371.5,181.0,379.0,180.5,386.5,180.0,395.0,179.5,403.0,179.5,411.0,178.5" stroke="black" stroke-width="2" fill="none"/>
<polyline points="404.0,82.0,412.5,81.5" stroke="black" stroke-width="2" fill="none"/>
<polyline points="411.0,74.5,403.0,82.0,394.5,89.5,386.5,97.5,378.5,105.5,370.5,113.5,362.5,121.0,354.5,128.5,346.5,136.0,338.5,143.5,330.5,151.0,322.5,158.0,314.5,165.5,306.5,173.0,298.0,180.5" stroke="black" stroke-width="2" fill="none"/>
<polyline points="298.5,181.5,307.0,180.5,315.0,180.5,323.5,180.0,331.5,179.5,339.5,179.0,348.0,178.5,356.5,178.0,364.5,177.5,372.5,177.5,380.0,177.0,388.0,176.0,396.0,176.0,404.5,175.5,413.0,175.0,421.5,175.0" stroke="black" stroke-width="2" fill="none"/>
<polyline points="412.5,68.5,404.5,75.5,396.0,82.5,387.5,90.0,379.0,97.5,371.0,105.5,362.5,113.0,354.5,120.5,346.5,128.0,338.5,136.0,331.0,144.0,322.5,151.0,314.0,158.0,306.0,165.5,298.0,173.0" stroke="black" stroke-width="2" fill="none"/>
<polyline points="300.0,179.0,308.5,178.0,317.0,177.5,325.0,177.0,333.0,176.5,341.0,176.5,349.0,175.5,357.0,174.0,365.0,172.5,373.0,172.0,381.0,171.0,389.0,171.0,396.5,170.5,404.5,170.5,413.0,170.5" stroke="black" stroke-width="2" fill="none"/>
<polyline points="412.0,70.5,404.0,71.5,396.0,72.5,388.5,73.0" stroke="black" stroke-width="2" fill="none"/>
<polyline points="393.5,59.0,386.0,66.0,378.0,74.0,370.5,82.0,363.5,89.5,355.5,97.5,348.0,105.5,340.5,113.5,332.5,121.0,324.0,129.0,316.0,136.5,308.0,143.5,299.5,150.5,291.0,158.0" stroke="black" stroke-width="2" fill="none"/>
<polyline points="285.0,163.5,293.0,163.0,301.5,162.5,309.5,162.0,317.0,161.5,324.5,161.0,332.5,161.0,340.5,160.5,348.5,160.5,357.0,160.5,365.0,160.5,373.0,159.5,380.5,159.0,388.5,158.5,396.0,158.0,403.5,157.5,411.0,157.5,419.5,156.5" stroke="black" stroke-width="2" fill="none"/>
<polyline points="412.5,60.5,404.0,68.0,395.0,74.5,386.5,82.0,378.5,89.5,371.0,97.5,363.0,105.0,356.0,113.5,348.5,121.0,340.5,128.5,332.5,136.5,324.5,143.0,315.5,150.0,307.0,157.5,299.0,165.0" stroke="black" stroke-width="2" fill="none"/>
<polyline points="292.0,167.0,300.5,159.5,308.5,151.5,316.5,144.0,324.5,136.0,332.5,128.5,340.5,121.0,348.0,113.5,355.0,106.0,363.0,98.0,370.5,90.5,377.5,83.0,385.0,75.5,393.0,68.0,401.0,60.5" stroke="black" stroke-width="2" fill="none"/>
<polyline points="387.0,57.5,379.0,65.0,371.0,72.5,363.0,81.0,355.0,89.0,346.5,97.0,339.0,104.5,331.0,112.0,323.0,119.5,314.5,127.0,306.0,134.5,298.5,142.0,290.5,149.0,283.0,156.0" stroke="black" stroke-width="2" fill="none"/>
<polyline points="282.0,155.5,290.0,154.5,298.5,154.0,307.0,153.5,314.5,153.0,323.0,152.5,331.0,152.5,339.5,152.5,347.5,153.0,355.0,153.0,363.0,152.5,371.0,152.0,379.5,151.5,387.5,151.0,395.0,151.5,403.0,151.0,410.5,151.0,419.0,150.0" stroke="black" stroke-width="2" fill="none"/>
<polyline points="404.0,62.0,396.0,62.5,388.0,63.0,379.5,63.5,371.0,64.5,362.5,65.5" stroke="black" stroke-width="2" fill="none"/>
<polyline points="363.5,44.5,355.5,52.0,348.0,60.0,340.0,67.0,331.5,74.0,323.5,81.0,315.5,88.5,308.0,96.0,300.0,104.0,292.5,111.5,284.5,119.0,276.5,126.5" stroke="black" stroke-width="2" fill="none"/>
<polyline points="274.5,127.5,282.5,126.5,290.5,125.0,299.0,124.0,307.5,123.5,315.5,123.0,324.0,122.5,332.5,121.5,341.0,121.5,348.5,121.0,356.0,120.5,364.0,120.0,372.0,119.5,380.0,119.5,388.5,119.0,396.0,118.5,404.0,117.5,412.0,116.5,420.0,115.5" stroke="black" stroke-width="2" fill="none"/>
<polyline points="387.5,52.0,379.5,59.5,372.0,66.0,364.5,73.0,357.0,80.0,349.0,87.5,341.0,95.5,332.5,103.5,324.0,111.5,316.0,119.5,308.0,126.5,300.0,134.5,292.0,142.0,284.5,149.5" stroke="black" stroke-width="2" fill="none"/>
<polyline points="284.5,146.5,292.0,145.5,300.5,144.5,309.0,143.5,317.5,142.5,325.5,142.0,333.5,141.5,341.5,141.0,349.5,140.5,357.0,140.0,365.5,139.5,373.0,139.5,381.5,139.0" stroke="black" stroke-width="2" fill="none"/>
<polyline points="381.0,52.5,373.0,60.5,365.5,68.0,357.5,75.0,349.5,82.0,342.0,89.0,333.5,96.0,325.0,104.0,316.5,111.5,309.0,119.5,301.0,127.0,292.5,134.0,284.5,141.0" stroke="black" stroke-width="2" fill="none"/>
<polyline points="284.5,136.5,292.5,136.0,300.0,135.0,308.0,135.0" stroke="black" stroke-width="2" fill="none"/>
<polyline points="315.5,126.5,307.0,127.0,299.0,127.5,291.5,128.0,283.5,128.0" stroke="black" stroke-width="2" fill="none"/>
<polyline points="285.0,121.0,292.5,120.5,300.5,119.5,308.5,118.5,316.0,119.0,323.5,118.5,331.5,118.5,340.0,118.0,347.5,118.5,355.5,118.5,363.5,118.5,371.5,117.5,379.5,116.5,387.0,115.0,395.5,114.5,403.5,113.5,411.0,112.5" stroke="black" stroke-width="2" fill="none"/>
<polyline points="371.5,44.0,363.5,52.0,355.0,59.5,346.5,67.0,338.0,74.0,330.0,81.5,322.0,89.0,314.5,97.0,307.0,104.5,299.0,111.5,291.5,118.5,283.0,126.0,275.5,133.5" stroke="black" stroke-width="2" fill="none"/>
<polyline points="276.0,133.5,284.0,133.0,292.0,132.5,300.0,132.5,307.5,132.0,316.0,131.0,324.0,131.0,331.5,131.0,340.0,130.5,348.5,129.5,357.0,129.0,364.5,128.5,372.5,128.5,380.0,128.0,387.5,127.0,395.0,126.0,403.0,125.5,411.5,124.5,419.5,124.0" stroke="black" stroke-width="2" fill="none"/>
<polyline points="354.0,44.0,346.5,51.5,338.5,58.5,331.0,66.0,323.0,73.0,315.0,81.0,308.0,89.0,300.5,97.0,293.0,105.0,284.5,113.0,277.0,120.5" stroke="black" stroke-width="2" fill="none"/>
<polyline points="274.5,117.0,282.0,117.0,289.5,116.5,298.0,116.0,306.0,115.5,314.5,114.5,323.0,114.0,332.0,113.5,340.5,113.0,348.5,112.0,356.5,111.5,364.5,111.0,372.5,110.5,380.0,110.5,388.0,110.5,396.0,110.0,404.0,109.0,412.0,108.5,420.0,108.0" stroke="black" stroke-width="2" fill="none"/>
<polyline points="386.5,56.0,379.0,56.0,371.0,56.5,363.5,56.0,355.5,56.5,347.0,57.0,339.0,57.5" stroke="black" stroke-width="2" fill="none"/>
<polyline points="330.5,47.5,338.5,48.0,346.5,47.5,354.5,47.5" stroke="black" stroke-width="2" fill="none"/>
<polyline points="347.5,44.0,340.0,51.5,332.0,59.0,324.0,66.5,316.0,73.0,308.5,80.5,301.0,88.0,293.5,95.0,286.0,103.0,278.5,111.0" stroke="black" stroke-width="2" fill="none"/>
<polyline points="284.0,111.5,292.0,111.0,300.0,111.0,308.0,111.0,316.0,110.5,324.0,110.0,331.5,110.0,338.5,109.5,346.5,109.0,354.5,108.5,362.5,108.0,371.0,107.5,378.5,108.0,386.5,108.0,394.0,107.5,402.0,107.0,410.0,106.5,417.5,105.5" stroke="black" stroke-width="2" fill="none"/>
<polyline points="340.5,42.5,332.5,50.5,325.0,58.5,317.0,66.5,308.5,74.0,300.5,81.5,292.5,89.5,284.0,96.5,276.0,103.5" stroke="black" stroke-width="2" fill="none"/>
<polyline points="273.5,102.0,282.0,101.5,290.5,100.5,299.0,99.5,307.0,99.0,315.0,99.0,323.5,97.5,332.5,96.5,341.0,96.0,349.0,96.0,357.0,95.5,365.0,95.0,372.5,95.0,380.5,94.5,388.5,94.5,396.5,94.0,404.5,93.5,412.5,93.5,420.5,93.0,428.5,92.0" stroke="black" stroke-width="2" fill="none"/>
<polyline points="334.0,43.0,325.5,50.5,317.5,58.0,309.0,65.5,301.0,72.5,293.0,80.0,284.5,87.5" stroke="black" stroke-width="2" fill="none"/>
<polyline points="283.5,84.5,291.5,84.5,299.0,84.5,307.0,84.0,315.5,83.0,324.0,82.5,332.0,82.5,340.0,82.5,348.5,82.5,356.5,82.5,364.5,82.0,373.0,81.5,381.0,80.5,389.0,79.5,396.5,78.5,404.5,78.0,412.5,76.5,420.0,76.0" stroke="black" stroke-width="2" fill="none"/>
<polyline points="382.0,42.5,374.0,43.0,365.5,43.0,357.0,43.0,349.0,43.5,341.5,43.0,333.5,42.5,325.5,42.5,317.0,42.5" stroke="black" stroke-width="2" fill="none"/>
<polyline points="319.0,41.0,303.0,49.0,295.0,56.5,289.0,64.0,284.0,72.0,280.5,80.0,276.5,88.0,273.5,96.0,273.0,104.5,273.0,112.5,273.0,120.5,274.0,128.5,275.0,136.5,275.5,144.5,277.5,153.0,280.0,161.5,285.0,169.5,290.5,177.5,296.5,185.5,301.5,193.5,305.5,201.0,311.5,209.0,318.0,217.5,323.0,225.5,328.5,233.5,331.5,241.5,329.0,249.5,337.0,259.0,344.5,266.5,358.0,274.0,374.0,282.0" stroke="black" stroke-width="2" fill="none"/>
<polyline points="332.0,253.0,339.5,261.0,347.5,268.0,355.5,273.0,363.0,277.0,371.0,280.5,379.0,285.0,387.0,288.0,395.0,290.0,403.0,292.0,411.0,292.0,419.0,291.0,427.0,290.0,435.0,287.0,443.0,280.5" stroke="black" stroke-width="2" fill="none"/>
<polyline points="420.0,180.5,412.0,181.0,404.0,181.5,396.0,182.5,388.0,183.5,380.5,184.0,372.0,184.5,363.5,185.0,355.5,186.0,347.0,186.5,338.5,187.0,330.5,187.5,323.0,187.5,315.5,188.0,307.0,188.0,298.5,188.5" stroke="black" stroke-width="2" fill="none"/>
<polyline points="291.0,173.0,298.5,172.5,306.5,171.5,314.5,170.5,323.0,170.0,331.5,169.0,339.0,169.0,347.0,168.5,355.0,168.0,364.0,167.5,372.0,167.0,379.5,167.0,387.5,166.5,395.5,166.5,404.0,166.5,412.5,166.0,421.0,166.0" stroke="black" stroke-width="2" fill="none"/>
<polyline points="349.5,70.0,341.0,71.0,333.5,72.0,325.5,73.0,317.5,74.0,310.0,75.0,302.0,75.5" stroke="black" stroke-width="2" fill="none"/>
<polyline points="293.0,72.5,300.5,65.0,308.0,57.0,316.0,49.0" stroke="black" stroke-width="2" fill="none"/>
<polyline points="299.0,54.5,307.0,54.0,315.0,53.0,323.0,51.5,331.0,50.5,339.0,49.5,347.0,49.5,355.0,49.0,363.0,49.0,371.0,48.5,378.5,48.5,387.0,47.5,395.5,46.5" stroke="black" stroke-width="2" fill="none"/>
<polyline points="412.5,81.5,404.5,82.5,396.0,83.5,388.0,84.0,380.0,85.0,372.0,85.5,364.0,86.5,355.5,86.5,347.5,87.5,339.5,88.0,332.0,88.5,323.5,89.0,315.5,90.0,307.0,90.5,298.5,91.0,290.5,91.5" stroke="black" stroke-width="2" fill="none"/>
<polyline points="293.0,82.5,301.0,82.0,308.5,81.5,316.0,81.5,324.0,81.5,331.5,81.0,339.0,80.0,347.0,79.5,355.5,78.5,363.5,78.0,371.5,77.5,379.5,77.0,387.5,76.5" stroke="black" stroke-width="2" fill="none"/>
<polyline points="412.0,163.0,404.0,163.0,396.0,163.5,388.0,164.0,380.5,164.5,372.5,165.5,364.5,165.5,356.5,166.5,348.5,167.0,340.5,168.0,332.0,168.5,324.0,169.0,315.5,169.0,307.5,169.5,299.5,169.5,291.5,169.5" stroke="black" stroke-width="2" fill="none"/>
<polyline points="282.5,159.5,290.5,159.0,299.5,159.0,307.5,158.5,315.5,158.0,324.0,157.5" stroke="black" stroke-width="2" fill="none"/>
<polyline points="283.0,153.0,291.5,152.0,300.0,151.5,308.0,151.0,316.0,151.0,324.5,150.5,332.0,150.5,340.0,150.0,348.0,149.5,356.0,149.0,364.0,148.5,372.0,147.5,380.0,147.0" stroke="black" stroke-width="2" fill="none"/>
<polyline points="417.0,61.5,408.5,62.0,400.5,62.5,393.0,63.5,385.5,64.0,378.0,64.0,370.0,64.5,361.5,65.0,353.5,65.5,346.0,66.5,339.0,67.5,331.5,68.0,324.5,68.5,316.5,69.0,309.5,69.5,302.0,70.0,293.5,71.0" stroke="black" stroke-width="2" fill="none"/>
<polyline points="293.5,60.5,301.5,60.5,309.0,60.5,317.0,59.5,325.5,58.5,333.5,58.0,341.0,57.0,348.5,57.0,355.5,57.0,363.0,56.0,371.0,55.5,379.0,55.5,387.5,55.0,395.5,54.5,403.0,54.0,411.0,53.5" stroke="black" stroke-width="2" fill="none"/>
<polyline points="418.0,96.0,410.0,97.0,401.5,98.0,394.0,98.5,386.5,98.5,378.5,98.5,370.5,99.0,362.5,98.5,354.5,99.5,346.5,100.5,338.5,101.0,330.5,102.0,323.0,103.0,315.0,103.0,307.0,103.5,299.5,104.0,291.5,104.5,283.5,105.0" stroke="black" stroke-width="2" fill="none"/>
<polyline points="283.0,98.0,291.0,97.0,299.5,97.0,307.5,96.5,316.0,95.5,324.5,94.5,332.0,94.0,340.0,93.0,348.0,91.5,356.5,91.0,365.0,90.5,372.5,90.0,380.0,89.5,388.0,89.0,396.5,88.5,404.0,88.0,411.0,87.5,418.5,87.0" stroke="black" stroke-width="2" fill="none"/>
<polyline points="420.5,67.5,412.5,68.5,404.5,70.0,395.5,71.0,387.5,71.5,379.0,72.5,371.0,73.5,363.5,74.0,355.0,74.5,347.0,75.0,338.5,75.5,330.0,75.5,321.5,75.5,313.0,75.5,305.0,75.5,297.0,75.0,289.0,75.0,281.5,75.0" stroke="black" stroke-width="2" fill="none"/>
<polyline points="274.0,93.5,282.5,93.0,291.0,92.5,299.0,92.5,307.0,92.0,315.5,91.5,323.5,90.5,332.0,89.0,340.5,88.0,348.5,87.0,357.0,86.5,364.5,86.0,372.5,85.5,380.5,85.5,388.0,85.5,396.0,85.0,404.0,85.0,412.0,84.5,419.5,84.0,427.0,83.5" stroke="black" stroke-width="2" fill="none"/>
<polyline points="418.0,133.0,410.5,134.0,403.0,134.5,395.0,135.5,387.0,136.0,379.0,136.5,371.0,137.5,363.0,138.5,355.5,139.0,347.5,139.5,339.5,139.5,331.5,140.0,323.5,140.0,315.5,140.5,307.5,141.0,300.0,141.0,291.5,141.0,283.5,141.5,275.5,142.0" stroke="black" stroke-width="2" fill="none"/>
<polyline points="277.5,157.0,285.5,170.0,293.5,180.0,301.5,193.0,309.0,207.0,317.0,217.0,325.0,228.5" stroke="black" stroke-width="2" fill="none"/>
<polyline points="273.0,109.5,281.5,109.0,289.5,108.5,298.0,108.0,306.5,107.0,315.0,106.5,323.5,105.0,332.5,104.0,341.0,103.5,349.0,102.5,357.0,101.5,365.5,101.5,373.5,101.5,381.5,102.0,389.0,102.5,397.0,102.0,405.5,102.0,414.0,102.0,422.0,101.5,429.5,101.5" stroke="black" stroke-width="2" fill="none"/>
<polyline points="416.5,70.0,409.0,60.5,401.0,55.0,393.0,53.0,385.0,49.0,377.0,45.5,368.5,43.5,360.0,41.5,351.5,39.5,344.0,38.5,336.5,38.5,328.5,39.0,321.0,41.5,313.0,43.5,305.0,48.5,296.5,54.5,288.5,65.5,280.0,79.5,272.0,95.5" stroke="black" stroke-width="2" fill="none"/>
<polyline points="164.0,67.0,156.0,74.5,148.0,82.0,139.5,89.5,131.5,97.5,123.0,105.0,115.0,112.5,107.5,120.5,99.5,128.0,92.0,135.5,84.5,143.5,76.0,151.0,67.0,157.5,58.5,165.0,50.5,172.5,43.0,180.5,35.0,188.0,28.0,196.5" stroke="black" stroke-width="2" fill="none"/>
<polyline points="28.5,194.0,36.0,192.5,44.0,192.0,51.5,191.5,59.0,191.0,66.5,191.0,75.0,190.5,83.5,190.5,92.0,190.0,100.0,189.5,108.0,188.5,116.0,188.5,124.0,188.0,132.0,188.0,140.0,187.5,148.5,187.5,156.5,187.0,164.5,186.0,172.5,185.5" stroke="black" stroke-width="2" fill="none"/>
<polyline points="158.0,69.0,150.0,76.5,142.0,84.0,133.5,91.0,124.5,97.5,116.0,104.5,107.0,112.0,98.0,120.0,89.5,128.0,81.0,136.0,73.0,143.5,65.0,151.0,57.0,158.5,49.5,166.0,42.5,173.5,35.0,181.0,27.0,189.0,20.0,196.5" stroke="black" stroke-width="2" fill="none"/>
<polyline points="18.5,197.0,26.5,196.5,34.5,196.5,42.5,196.5,51.0,196.0,59.0,196.0,66.0,195.5,74.0,195.0,81.5,194.0,89.5,193.5,97.5,193.5,105.5,193.0,114.0,192.5,122.0,192.0,130.0,191.5,137.5,190.5,146.0,189.0,154.5,188.5,163.0,187.5,171.5,187.0" stroke="black" stroke-width="2" fill="none"/>
<polyline points="158.0,60.0,150.0,67.5,141.5,74.5,132.5,82.0,124.0,89.0,115.5,96.0,107.0,103.5,98.0,111.0,89.5,118.5,82.0,126.0,73.5,134.0,66.0,141.0,58.0,149.0,50.5,157.0,43.5,164.5,35.5,172.5,28.0,180.5,20.5,188.5" stroke="black" stroke-width="2" fill="none"/>
<polyline points="21.0,189.0,29.0,188.5,36.5,188.0,44.0,188.0,51.5,188.0,59.0,188.0,66.5,187.0,74.0,186.5,81.5,185.5,88.5,185.5,96.5,185.5,105.0,184.5,113.5,184.5,122.5,184.0,131.0,182.5,139.5,182.0,148.0,181.0,156.0,180.5,164.5,180.0,172.5,179.5" stroke="black" stroke-width="2" fill="none"/>
<polyline points="146.5,51.0,139.0,58.5,131.5,65.5,124.0,73.0,115.5,80.5,107.0,88.5,99.0,95.5,91.5,103.0,83.5,111.0,75.5,119.5,67.5,127.0,59.5,134.5,52.0,141.0,44.5,148.0,37.0,155.0,29.0,162.5,21.0,170.5" stroke="black" stroke-width="2" fill="none"/>
<polyline points="21.0,168.0,29.0,167.5,37.0,167.5,45.0,167.5,52.5,167.5,60.5,167.5,68.0,167.0,76.0,166.0,83.5,165.5,91.5,165.5,99.0,165.5,107.0,165.0,114.5,163.5,122.5,162.5,130.5,161.5,138.0,160.5,146.5,160.0,154.5,159.5,163.0,159.5,171.5,159.5" stroke="black" stroke-width="2" fill="none"/>
<polyline points="146.0,43.5,138.5,50.5,130.5,58.5,122.5,66.5,115.0,74.5,107.5,82.5,99.5,90.0,92.0,97.5,84.5,105.0,76.5,112.5,69.0,119.5,61.0,127.5,53.5,135.0,45.5,142.0,37.5,149.0,30.0,156.0,21.5,163.0" stroke="black" stroke-width="2" fill="none"/>
<polyline points="21.0,164.0,29.0,163.5,37.5,163.5,45.5,164.0,54.0,163.5,61.5,163.5,69.5,163.5,76.5,163.5,84.5,163.0,93.0,163.5,101.0,162.5,109.0,162.5,116.5,162.0,124.0,161.0,131.5,160.0,139.5,158.5,146.5,157.5,154.0,156.5,161.5,155.0,169.5,154.0,177.5,153.0,185.0,153.0" stroke="black" stroke-width="2" fill="none"/>
<polyline points="147.0,37.0,139.0,44.5,131.0,52.0,123.0,60.0,115.5,67.5,107.5,75.0,100.0,82.5,91.5,89.5,83.5,96.5,75.5,103.5,68.0,111.0,60.0,118.5,52.0,126.0,43.5,133.5,35.0,140.5,27.5,148.0,19.5,155.5" stroke="black" stroke-width="2" fill="none"/>
<polyline points="19.0,154.5,27.5,153.5,35.5,152.5,43.0,151.5,51.0,150.5,58.5,149.5,67.0,149.5,75.0,149.5,82.5,149.0,90.5,148.0,98.5,147.5,106.5,147.5,114.5,147.5,122.5,146.5,131.0,146.0,139.5,146.0,147.5,145.5,155.5,145.0" stroke="black" stroke-width="2" fill="none"/>
<polyline points="139.5,36.0,131.0,43.5,123.0,51.0,115.0,58.5,106.5,66.0,98.0,73.5,90.0,81.5,82.5,89.0,75.0,96.5,67.5,104.5,59.5,111.5,51.5,119.0,44.0,127.0,36.0,134.0,27.5,141.0,19.5,148.0" stroke="black" stroke-width="2" fill="none"/>
<polyline points="20.5,147.0,28.0,147.0,36.0,146.5,44.0,146.5,52.0,146.0,60.0,145.5,68.0,145.0,76.5,145.0,85.0,145.0,93.0,145.0,101.5,145.0,109.0,144.0,116.5,143.0,124.5,142.5,132.0,142.0,140.0,141.5,147.5,141.5,155.0,141.5,162.5,141.5,170.5,141.5,178.5,141.5,186.5,140.5" stroke="black" stroke-width="2" fill="none"/>
<polyline points="147.0,20.5,139.0,28.0,130.5,35.0,122.0,43.0,114.0,51.0,106.0,58.5,98.0,66.0,90.5,73.5,83.0,81.0,75.5,87.5,67.5,95.0,59.5,103.0,51.0,110.5,42.5,118.0,34.0,125.0,26.0,132.5,18.0,140.0" stroke="black" stroke-width="2" fill="none"/>
<polyline points="19.0,139.0,26.5,138.5,34.5,137.5,42.5,137.0" stroke="black" stroke-width="2" fill="none"/>
<polyline points="19.0,132.0,27.0,124.0,35.0,117.0,42.5,109.5,50.5,102.5,58.0,95.0,66.5,87.0,75.0,79.5,83.0,72.0,91.5,65.5,100.0,58.5,107.5,51.0,115.5,43.5,123.0,36.0,131.0,29.0,139.0,21.5" stroke="black" stroke-width="2" fill="none"/>
<polyline points="139.5,12.5,131.5,20.0,124.0,27.0,116.0,34.5,108.0,42.0,100.0,50.0,92.0,57.5,84.0,65.0,76.0,72.0,67.5,79.5,59.5,87.0,52.0,94.5,44.0,102.0,36.0,109.5,28.0,116.0,20.5,123.5" stroke="black" stroke-width="2" fill="none"/>
<polyline points="17.5,122.0,26.0,121.5,34.5,121.0" stroke="black" stroke-width="2" fill="none"/>
<polyline points="20.5,117.0,29.0,109.5,37.0,101.5,44.5,93.5,52.5,85.5,60.5,78.5,69.0,71.0,77.0,63.5,85.0,55.5,93.0,47.5,101.0,39.5,109.5,32.0,117.5,24.5,125.0,17.0,133.0,9.0" stroke="black" stroke-width="2" fill="none"/>
<polyline points="124.5,8.5,116.0,16.0,108.0,24.5,99.5,32.0,92.0,39.5,84.5,47.5,76.5,55.0,68.5,63.5,61.0,71.0,53.5,78.5,46.0,86.0,37.5,93.5,29.5,101.0,21.0,108.5,13.0,115.5" stroke="black" stroke-width="2" fill="none"/>
<polyline points="11.5,117.0,19.5,116.5,27.5,115.5,35.0,114.5,43.5,113.5,52.0,113.0,60.0,112.5,68.0,112.5,76.5,112.0,84.5,112.0,93.0,112.0,101.0,111.5,109.0,110.5,116.5,110.0,124.0,110.5,131.5,110.5,139.0,110.5,146.5,109.5,154.5,109.0,162.5,108.5,170.5,107.5,178.5,107.0,187.0,107.0,195.5,106.5,204.0,106.5" stroke="black" stroke-width="2" fill="none"/>
<polyline points="106.5,79.5,98.0,80.0,89.5,80.5,81.5,80.5,73.5,80.5,65.5,81.0" stroke="black" stroke-width="2" fill="none"/>
<polyline points="30.0,78.5,37.5,70.5,45.5,63.0,52.5,55.5,60.0,48.0,67.0,40.0,75.0,32.5,82.5,25.5,90.0,18.0,98.0,10.0,106.0,2.0" stroke="black" stroke-width="2" fill="none"/>
<polyline points="98.0,2.0,90.0,9.5,82.5,16.5,74.0,24.0,66.0,32.0,58.5,39.5,50.5,47.5,42.5,55.0,35.0,63.0,26.5,71.0" stroke="black" stroke-width="2" fill="none"/>
<polyline points="26.0,70.0,33.5,69.5,41.5,69.0,49.5,69.0,58.0,68.5,66.0,68.5,74.0,67.5,81.5,66.5,89.5,66.0,97.5,65.0,105.5,64.0,113.5,63.5,121.5,63.5,129.5,63.5,138.0,63.0,146.5,62.5,155.0,61.0,163.5,59.5,172.5,58.5,181.0,58.0,189.0,57.5" stroke="black" stroke-width="2" fill="none"/>
<polyline points="164.0,13.5,156.0,14.0,148.0,14.0,140.0,14.0,132.0,14.5,124.0,15.0,116.0,16.0,107.5,17.0,99.0,17.5,91.0,18.0,82.5,18.0,74.0,18.5,65.5,19.0,57.0,19.5,49.0,20.0" stroke="black" stroke-width="2" fill="none"/>
<polyline points="43.0,30.5,51.0,30.0,58.5,28.5,66.5,27.5,74.5,26.5,82.0,25.5,90.5,25.0,98.5,24.5,107.0,24.5,115.5,24.5,123.5,23.5,131.5,23.5,139.0,23.5,147.0,23.0,155.5,22.0,164.0,21.5" stroke="black" stroke-width="2" fill="none"/>
<polyline points="164.0,29.5,155.5,30.0,147.5,30.5,139.0,31.0,130.5,32.0,122.5,33.5,114.5,34.5,106.5,34.5,98.5,34.5,91.0,34.5,83.5,34.5,76.0,34.5,68.0,35.0,60.5,35.5,52.5,36.0,45.0,37.0,37.5,38.0" stroke="black" stroke-width="2" fill="none"/>
<polyline points="43.5,40.0,51.5,39.5,59.0,39.0,66.5,38.5,75.0,38.0,83.5,38.0" stroke="black" stroke-width="2" fill="none"/>
<polyline points="91.0,23.5,83.5,24.5,76.0,25.5,67.5,26.0" stroke="black" stroke-width="2" fill="none"/>
<polyline points="60.0,14.0,68.0,14.0,75.5,13.5,83.5,12.5,91.5,11.5,99.5,10.5,108.0,10.0,115.5,9.0,123.5,8.5,132.0,8.0,140.5,7.5,148.5,7.0,156.0,6.0" stroke="black" stroke-width="2" fill="none"/>
<polyline points="157.0,9.0,164.5,19.0,172.5,25.0,180.0,47.0,188.0,62.0" stroke="black" stroke-width="2" fill="none"/>
<polyline points="171.5,38.0,164.0,38.0,156.0,38.0,147.5,39.0,140.0,39.5,132.0,39.5,124.0,40.0,116.0,40.5,108.0,41.0,100.0,41.5,91.5,42.0,83.5,42.5,75.5,43.0,67.0,43.0,58.5,43.5,50.5,44.5,42.5,44.5,34.5,44.5" stroke="black" stroke-width="2" fill="none"/>
<polyline points="33.0,48.0,41.5,47.5,49.5,47.5,57.5,47.0,66.0,47.0,74.5,46.0" stroke="black" stroke-width="2" fill="none"/>
<polyline points="91.5,31.0,83.0,31.5,74.5,33.0,65.5,33.5,57.0,33.5,48.5,34.5" stroke="black" stroke-width="2" fill="none"/>
<polyline points="36.0,59.0,43.5,58.5,51.5,57.0,59.5,56.5,67.0,56.5" stroke="black" stroke-width="2" fill="none"/>
<polyline points="45.0,87.5,37.0,88.5,29.0,89.0" stroke="black" stroke-width="2" fill="none"/>
<polyline points="29.5,84.5,37.5,84.5,45.0,84.0,53.0,84.0,61.5,84.0,69.5,83.5,77.5,84.0,85.0,84.0,92.5,84.0,100.5,83.0,108.5,82.5,116.0,82.0,124.0,81.5,131.5,80.5,139.5,79.5,147.5,78.5,155.0,78.5,162.5,78.5,170.5,78.0,178.0,78.0,186.5,77.5,194.5,77.0" stroke="black" stroke-width="2" fill="none"/>
<polyline points="114.0,92.5,106.5,93.0,98.0,93.0,90.0,93.5,83.0,94.0,76.0,94.5,68.5,95.0,61.0,95.0,52.5,95.0,44.5,96.0,37.0,96.5,28.5,97.0" stroke="black" stroke-width="2" fill="none"/>
<polyline points="29.0,103.5,37.0,103.5,45.0,103.5" stroke="black" stroke-width="2" fill="none"/>
<polyline points="20.5,100.0,28.0,92.0,36.0,84.0,44.0,76.5,52.5,69.0,60.5,61.5,68.0,54.0,76.0,46.5,84.0,39.5,91.5,32.5,99.0,25.5,107.5,18.5,116.0,11.0" stroke="black" stroke-width="2" fill="none"/>
<polyline points="115.5,3.0,107.0,10.5,99.5,18.5,91.5,26.0,83.5,33.0,75.5,40.5,68.0,48.0,60.5,55.0,53.0,62.0,45.0,69.5,36.5,77.0,28.5,84.5" stroke="black" stroke-width="2" fill="none"/>
<polyline points="27.5,79.5,35.5,79.0,44.0,79.5,52.5,79.5" stroke="black" stroke-width="2" fill="none"/>
<polyline points="27.5,75.5,35.5,75.0,44.0,74.5,51.5,74.0,58.5,73.5,67.0,73.0,75.0,73.0,83.0,73.0,91.5,72.5,99.5,72.0,108.0,71.0,116.0,71.0,124.0,70.0,132.5,70.0,140.5,70.0,149.5,70.0,157.5,70.0,166.0,69.5,174.0,69.5,182.0,69.5,189.5,69.0,198.0,68.0" stroke="black" stroke-width="2" fill="none"/>
<polyline points="157.5,-0.5,149.5,0.5,141.5,1.0,133.5,1.5,125.5,1.5,117.0,2.0,108.5,2.5,100.0,3.0,91.5,3.5,83.0,4.5,75.0,5.5" stroke="black" stroke-width="2" fill="none"/>
<polyline points="75.0,10.5,67.0,18.0,58.5,25.5,51.0,33.5,43.0,41.0,35.0,48.5,27.0,56.0" stroke="black" stroke-width="2" fill="none"/>
<polyline points="27.5,55.0,35.5,54.0,43.5,53.5,52.0,53.0,60.0,51.5,68.5,50.5,76.5,50.0,84.0,49.5,92.0,49.0,99.0,48.5,107.0,47.5,115.0,47.5,123.0,46.5,131.0,46.0,139.0,46.0,146.5,45.5,155.0,45.0,163.0,44.0,171.5,43.5" stroke="black" stroke-width="2" fill="none"/>
<polyline points="177.5,49.5,169.5,50.5,162.0,51.0,154.5,51.5,146.5,52.0,139.0,53.0,132.0,54.0,124.5,54.0,116.0,54.0,107.5,55.0,99.5,55.5,91.5,56.5,83.5,57.5,75.0,58.0,66.5,58.5,59.0,59.5,51.0,60.0,43.0,61.0,34.5,61.0,26.5,61.5" stroke="black" stroke-width="2" fill="none"/>
<polyline points="26.5,63.5,34.5,56.0,42.5,48.5,50.5,40.5,58.0,33.0,66.0,25.5,74.0,17.5,82.0,9.5,90.0,1.5" stroke="black" stroke-width="2" fill="none"/>
<polyline points="150.5,3.5,154.5,7.0,159.5,15.0,168.0,23.0,174.5,31.5,176.5,39.5,179.5,47.0,184.5,55.5,189.0,63.0,193.5,71.0,196.5,79.0,199.5,87.0,201.0,94.5,202.0,102.5,203.0,110.5,202.0,118.5,200.0,127.0,196.0,135.0,193.0,143.0,189.5,151.5,185.0,159.0,182.0,167.0,178.5,175.5,175.5,183.5,172.5,191.5,168.5,199.0,164.5,207.5,159.5,215.5,155.5,223.0,147.5,231.0,132.5,239.0,111.0,247.0" stroke="black" stroke-width="2" fill="none"/>
<polyline points="155.0,221.0,146.5,221.5,138.0,222.5,130.0,223.0,121.5,223.5,114.0,224.0,106.5,224.0,98.0,225.0,91.0,226.5,83.5,227.5,76.0,228.0,68.0,228.5,60.0,229.0,51.5,229.0,43.0,229.5,35.0,230.0,27.0,230.5" stroke="black" stroke-width="2" fill="none"/>
<polyline points="25.5,227.0,34.0,226.5,42.0,226.5,50.0,225.5,58.0,224.5,66.0,223.5,74.0,222.5,82.5,222.5,90.5,222.0,97.5,221.5,105.0,220.5,113.5,220.0,121.5,219.5,130.0,219.0,138.5,218.0,147.0,217.5,155.5,216.0" stroke="black" stroke-width="2" fill="none"/>
<polyline points="173.0,178.0,164.5,178.5,156.5,178.0,148.0,178.0,140.0,178.5,132.0,179.0,123.5,179.5,115.5,180.0,107.5,180.0,99.5,180.0,91.5,180.5,83.0,181.0,75.0,181.5,67.5,182.0,60.0,182.5,52.5,183.5,45.0,184.5,37.0,185.0,29.0,186.0" stroke="black" stroke-width="2" fill="none"/>
<polyline points="21.0,182.5,29.0,182.0,36.5,181.5,44.5,181.0,52.0,180.0,59.5,179.5,67.0,178.5,74.5,178.0,82.0,177.0,89.0,175.5,97.0,175.0,105.0,174.5,113.5,174.0,122.0,173.5,130.5,173.0,139.0,173.0,147.0,172.5,155.5,172.0,164.0,171.0,172.0,170.0,180.0,169.5" stroke="black" stroke-width="2" fill="none"/>
<polyline points="57.5,71.0,50.0,71.5,42.0,72.0,34.0,72.0,25.5,72.5" stroke="black" stroke-width="2" fill="none"/>
<polyline points="27.0,66.5,35.0,66.0,43.0,65.0,50.5,64.5,58.0,64.5" stroke="black" stroke-width="2" fill="none"/>
<polyline points="24.5,58.0,32.5,43.0,40.5,32.0,48.5,22.0,57.0,16.0,65.0,9.5,73.0,5.5,81.0,3.5,88.5,2.5" stroke="black" stroke-width="2" fill="none"/>
<polyline points="20.0,93.5,28.0,93.0,36.0,92.5,44.0,92.0,52.5,91.0,60.5,90.0,69.0,89.5,76.5,89.0,84.5,89.0,92.5,89.0,100.5,89.0,108.0,87.5,116.0,87.0,123.5,86.5,131.0,86.0,138.5,86.0,147.0,85.5,155.5,85.5,164.0,85.0,172.0,84.5,180.0,83.5,188.0,83.5,196.0,83.0,204.0,83.0" stroke="black" stroke-width="2" fill="none"/>
<polyline points="164.0,205.0,156.0,205.0,147.5,205.0,139.0,205.5,131.0,206.0,124.0,206.0,116.5,207.0,108.5,208.0,101.0,209.0,93.0,209.0,85.0,209.5,76.5,210.5,68.0,211.5,59.5,212.0,52.5,213.0,45.0,214.0,38.0,214.5,30.5,215.5,22.5,216.5" stroke="black" stroke-width="2" fill="none"/>
<polyline points="22.0,215.0,30.0,228.0,38.0,234.0,46.0,239.0,53.5,243.0,61.5,246.0,69.5,247.0,78.0,248.0,86.0,250.0,94.0,250.0,102.0,250.5,110.0,248.0,118.0,245.0,126.0,242.0,133.5,238.5,141.0,234.5,149.0,229.5,157.0,219.5,165.0,206.5,173.0,189.5,181.0,171.0,189.0,152.0,197.0,133.0" stroke="black" stroke-width="2" fill="none"/>
<polyline points="172.0,195.0,163.5,195.5,155.5,196.0,148.0,197.0,139.5,197.5,131.5,198.5,123.5,199.5,115.5,200.5,108.0,201.0,100.0,201.0,92.0,202.0,84.0,202.5,76.0,202.5,67.5,202.0,59.5,203.0,51.5,203.0,43.5,203.5,35.5,204.5,27.5,205.0,19.0,206.0" stroke="black" stroke-width="2" fill="none"/>
<polyline points="21.5,173.5,29.0,173.5,36.5,172.5,44.0,172.0,52.0,171.5,60.0,171.0,67.5,170.0,75.0,169.0,83.5,168.0,91.5,167.5,99.5,167.0,107.5,166.5,115.0,166.0,122.5,165.5,131.0,165.0,139.5,165.0,147.0,164.5,154.5,164.0,163.0,164.0,171.5,164.0,179.0,164.0" stroke="black" stroke-width="2" fill="none"/>
<polyline points="162.5,152.0,154.5,153.0,146.5,154.5,138.5,155.0,131.0,155.5,123.5,155.5,115.5,156.0,107.5,157.5,100.0,158.0,91.5,158.0,83.5,158.5,75.0,158.5,67.0,158.0,59.0,158.5,51.5,159.0,43.5,159.5,35.5,160.0,27.5,160.5,19.5,161.0" stroke="black" stroke-width="2" fill="none"/>
<polyline points="19.5,159.0,27.5,158.5,36.0,157.5,43.5,156.5,51.0,155.5,58.5,154.5,66.5,153.5,74.5,152.5,82.0,152.0,89.5,151.5,97.0,151.0,105.5,150.5,113.5,150.5,121.5,150.0,130.0,150.0,138.5,149.0,146.5,149.0,154.5,148.5,163.0,148.0,171.0,148.0,179.5,148.0,187.5,147.5" stroke="black" stroke-width="2" fill="none"/>
<polyline points="148.0,139.0,140.0,139.5,132.0,140.0,123.5,140.0,115.0,140.5,107.0,141.0,99.0,141.5,91.5,142.5,83.5,142.0,76.0,142.5,68.0,143.0,59.5,143.5,51.5,144.0,43.5,144.5,35.0,144.5,26.5,145.0,18.5,145.5" stroke="black" stroke-width="2" fill="none"/>
<polyline points="13.0,141.5,21.0,141.0,29.0,140.5,37.0,140.0,44.5,139.5,52.5,139.0,60.5,138.5,68.5,138.0,77.0,137.5,85.0,137.0,93.0,137.0,101.0,136.0,109.0,135.5,116.5,134.5,124.0,133.5,131.5,133.0,139.0,132.5,147.0,132.0,155.5,131.5,163.5,131.0,171.5,131.0,179.5,131.0,187.5,130.5,196.0,130.0" stroke="black" stroke-width="2" fill="none"/>
<polyline points="34.5,130.0,26.5,130.5,18.5,131.0" stroke="black" stroke-width="2" fill="none"/>
<polyline points="12.5,132.5,20.5,132.0,29.0,131.5,37.0,131.0,45.0,130.5,52.5,130.5,60.5,130.0,68.5,129.0,76.5,128.5,85.0,127.5,93.0,126.5,101.0,126.5,109.0,126.5,116.5,126.0,124.5,126.0,131.5,125.5,139.5,125.0,147.5,125.5,155.0,125.5,163.0,125.5,171.0,125.0,179.0,124.0,187.5,123.0,195.5,122.5" stroke="black" stroke-width="2" fill="none"/>
<polyline points="34.0,112.5,26.5,113.0,19.0,113.5" stroke="black" stroke-width="2" fill="none"/>
<polyline points="11.5,110.5,20.0,93.5" stroke="black" stroke-width="2" fill="none"/>
<polyline points="17.0,101.0,25.0,100.5,33.5,100.5,41.5,100.0,50.0,100.0,59.0,99.5,67.0,98.5,75.0,98.5,83.5,97.5,92.0,97.0,100.5,96.0,108.0,95.5,115.5,94.5,123.5,94.0,131.5,93.5,139.0,93.0,147.0,93.0,155.5,92.5,163.0,92.5,170.5,92.5,178.0,91.5,186.0,91.0,194.5,91.0,202.5,90.5" stroke="black" stroke-width="2" fill="none"/>
<polyline points="202.0,114.0,193.5,114.0,185.5,114.5,178.0,115.5,170.5,116.0,162.0,116.0,154.0,116.5,147.0,117.0,140.0,117.5,132.5,118.0,125.0,118.0,116.5,118.0,108.5,119.0,101.0,119.5,92.5,120.0,84.5,120.5,76.0,120.5,68.0,121.5,60.5,122.0,52.5,122.5,44.5,123.5,36.5,124.5,28.5,125.0,20.5,126.0,12.0,126.5" stroke="black" stroke-width="2" fill="none"/>
<polyline points="9.5,109.0,17.5,108.0,25.0,107.5,33.5,106.5,42.5,105.5,50.5,105.0,59.5,104.5,68.5,104.5,77.0,104.5,86.0,104.0,93.5,103.5,101.5,103.5,109.0,103.0,117.0,103.0,125.5,103.0,133.5,102.5,141.5,103.0,149.0,103.0,156.5,103.0,164.5,102.0,172.5,101.5,180.0,101.0,188.0,100.5,195.5,99.5,203.5,98.5" stroke="black" stroke-width="2" fill="none"/>
<svg version="1.0" width="300.000000pt" height="65.000000pt" viewBox="0 0 300.000000 65.000000" preserveAspectRatio="xMidYMid meet" x="200.0" y="0">
<metadata>
Created by potrace 1.10, written by Peter Selinger 2001-2011
</metadata>
<g transform="translate(0.000000,65.000000) scale(0.100000,-0.100000)" fill="#000000" stroke="none">
<path d="M40 320 l0 -250 75 0 75 0 0 250 0 250 -75 0 -75 0 0 -250z m98 212 c10 -7 13 -56 12 -211 0 -112 -2 -207 -6 -212 -7 -12 -51 -11 -59 1 -4 6 -6 99 -6 207 0 176 2 199 17 210 21 15 25 16 42 5z"/>
<path d="M230 560 c0 -5 10 -10 23 -10 21 0 22 -3 19 -60 -3 -39 0 -60 7 -60 7 0 11 23 11 60 0 53 2 60 20 60 11 0 20 5 20 10 0 6 -22 10 -50 10 -27 0 -50 -4 -50 -10z"/>
<path d="M370 500 l0 -70 41 0 c24 0 38 4 34 10 -3 6 -17 10 -31 10 -17 0 -24 5 -24 20 0 16 7 20 30 20 17 0 30 5 30 10 0 6 -13 10 -30 10 -23 0 -30 4 -30 20 0 16 7 20 30 20 17 0 30 5 30 10 0 6 -18 10 -40 10 l-40 0 0 -70z"/>
<path d="M529 552 c-28 -23 -30 -73 -4 -102 24 -26 76 -26 100 0 16 18 16 20 2 20 -10 0 -17 -4 -17 -9 0 -13 -33 -19 -58 -10 -26 10 -38 50 -22 78 8 15 20 21 45 21 19 0 35 -4 35 -10 0 -5 8 -10 18 -10 14 1 13 4 -7 20 -29 25 -62 25 -92 2z"/>
<path d="M700 500 c0 -39 4 -69 9 -66 4 3 6 17 3 31 -4 23 -1 25 32 25 34 0 35 -1 30 -30 -4 -19 -2 -30 5 -30 7 0 11 25 11 70 0 45 -4 70 -11 70 -7 0 -9 -11 -5 -30 5 -29 4 -30 -30 -30 -33 0 -36 2 -32 25 3 14 1 28 -3 31 -5 3 -9 -27 -9 -66z"/>
<path d="M862 498 l1 -73 6 60 6 60 33 -57 c19 -32 38 -58 43 -58 5 0 9 32 9 70 0 43 -4 70 -11 70 -7 0 -8 -18 -4 -55 4 -30 5 -55 2 -55 -3 0 -21 25 -39 55 -18 30 -36 55 -40 55 -5 0 -7 -33 -6 -72z"/>
<path d="M1033 500 c0 -41 2 -58 4 -37 2 20 2 54 0 75 -2 20 -4 3 -4 -38z"/>
<path d="M1117 563 c-18 -17 -6 -53 24 -68 16 -9 28 -22 26 -28 -5 -17 -38 -21 -48 -6 -4 7 -11 10 -15 6 -11 -11 17 -37 41 -37 44 0 48 62 5 80 -16 7 -30 17 -30 22 0 15 32 21 40 7 12 -18 22 -7 14 15 -6 16 -44 22 -57 9z"/>
<path d="M1262 554 c-28 -20 -31 -83 -4 -107 25 -23 75 -21 97 3 21 24 17 25 -19 6 -35 -18 -65 -10 -78 20 -17 38 7 74 48 74 18 0 36 -4 39 -10 3 -5 11 -10 17 -10 6 0 3 9 -7 20 -22 24 -62 26 -93 4z"/>
<path d="M1430 500 c0 -45 4 -70 11 -70 7 0 10 12 7 30 -4 28 -3 30 30 30 32 0 33 -1 27 -30 -4 -19 -3 -30 4 -30 7 0 11 27 11 70 0 45 -4 70 -11 70 -7 0 -9 -11 -5 -30 5 -28 4 -30 -28 -30 -31 0 -32 2 -28 30 3 18 0 30 -7 30 -7 0 -11 -25 -11 -70z"/>
<path d="M1590 500 l0 -70 35 0 c19 0 35 5 35 10 0 6 -13 10 -30 10 -23 0 -30 4 -30 20 0 16 7 20 30 20 17 0 30 5 30 10 0 6 -13 10 -30 10 -23 0 -30 4 -30 20 0 16 7 20 30 20 17 0 30 5 30 10 0 6 -16 10 -35 10 l-35 0 0 -70z"/>
<path d="M1733 550 c-2 -19 4 -20 123 -20 l124 0 0 -230 c0 -223 1 -230 20 -230 19 0 20 7 20 230 l0 230 119 0 c110 0 119 1 124 20 5 20 0 20 -262 20 -260 0 -267 -1 -268 -20z"/>
<path d="M2440 455 l0 -115 -75 0 c-68 0 -75 -2 -75 -20 0 -18 7 -20 75 -20 l75 0 0 -115 c0 -108 1 -115 20 -115 19 0 19 8 19 250 0 242 0 250 -19 250 -19 0 -20 -7 -20 -115z"/>
<path d="M2510 320 l0 -250 75 0 75 0 0 250 0 250 -75 0 -75 0 0 -250z m105 208 c8 -8 8 -405 0 -417 -10 -17 -53 -13 -63 6 -11 21 -15 383 -4 399 12 19 53 26 67 12z"/>
<path d="M2687 551 c3 -11 13 -21 22 -21 33 0 119 -49 144 -81 52 -70 59 -167 17 -237 -26 -43 -95 -91 -141 -98 -25 -4 -39 -12 -42 -25 -12 -44 109 -6 171 54 54 52 76 103 76 177 0 123 -89 226 -212 246 -38 6 -40 5 -35 -15z"/>
<path d="M1810 285 l0 -215 70 0 70 0 0 215 0 215 -70 0 -70 0 0 -215z m104 169 c8 -20 8 -318 0 -338 -8 -21 -60 -21 -68 0 -8 21 -8 339 1 347 13 13 61 7 67 -9z"/>
<path d="M2120 285 l0 -215 70 0 70 0 0 215 0 215 -70 0 -70 0 0 -215z m108 6 c2 -133 -1 -176 -10 -183 -21 -13 -55 -9 -62 8 -8 21 -8 318 0 339 5 11 16 15 38 13 l31 -3 3 -174z"/>
<path d="M236 325 c1 -69 14 -105 14 -42 0 34 2 37 30 37 28 0 30 -3 30 -35 0 -19 5 -35 10 -35 6 0 10 30 10 70 0 40 -4 70 -10 70 -5 0 -10 -13 -10 -30 0 -27 -3 -30 -30 -30 -27 0 -30 3 -30 30 0 17 -4 30 -8 30 -4 0 -7 -29 -6 -65z"/>
<path d="M397 372 c-24 -27 -21 -74 6 -100 31 -29 62 -28 94 4 20 20 24 31 19 57 -3 18 -14 38 -23 45 -25 18 -77 15 -96 -6z m81 -8 c41 -28 22 -94 -28 -94 -40 0 -67 39 -49 72 22 41 42 47 77 22z"/>
<path d="M576 368 c-23 -32 -20 -65 9 -93 29 -30 66 -32 90 -5 10 11 13 20 7 20 -6 0 -14 -4 -17 -10 -9 -14 -58 -13 -73 2 -18 18 -14 63 6 81 23 21 41 21 64 0 10 -9 21 -13 26 -9 12 13 -30 36 -64 36 -23 0 -38 -7 -48 -22z"/>
<path d="M740 320 c0 -40 4 -70 10 -70 6 0 10 16 10 35 0 32 2 35 30 35 28 0 30 -3 30 -36 0 -21 4 -33 10 -29 6 3 10 35 10 71 0 36 -4 64 -10 64 -5 0 -10 -13 -10 -30 0 -27 -3 -30 -30 -30 -27 0 -30 3 -30 30 0 17 -4 30 -10 30 -6 0 -10 -30 -10 -70z"/>
<path d="M897 384 c-17 -17 -5 -50 23 -66 33 -19 38 -35 14 -45 -10 -4 -22 0 -29 10 -16 22 -27 10 -14 -14 11 -22 39 -25 57 -7 18 18 15 58 -5 65 -30 10 -42 24 -36 39 7 19 23 18 40 -3 13 -17 14 -17 11 2 -3 20 -46 33 -61 19z"/>
<path d="M1027 372 c-23 -25 -21 -78 3 -102 26 -26 62 -25 91 1 21 18 21 20 4 13 -53 -19 -73 -16 -91 10 -34 52 20 105 72 71 31 -20 46 -11 18 10 -27 20 -78 19 -97 -3z"/>
<path d="M1190 318 c0 -39 3 -68 8 -64 4 4 7 20 7 34 0 23 4 27 30 27 26 0 30 -4 30 -27 1 -15 4 -30 8 -34 4 -4 7 25 7 64 0 40 -4 72 -8 72 -5 0 -7 -13 -4 -30 4 -29 3 -30 -32 -30 -36 0 -37 1 -32 30 2 17 0 30 -5 30 -5 0 -9 -32 -9 -72z"/>
<path d="M1338 333 c4 -63 15 -83 42 -83 10 0 22 6 28 13 12 15 21 127 10 127 -4 0 -8 -21 -8 -47 0 -56 -10 -76 -36 -71 -16 3 -20 14 -22 61 -2 31 -6 57 -10 57 -4 0 -5 -26 -4 -57z"/>
<path d="M1480 320 l0 -70 30 0 c17 0 30 5 30 10 0 6 -12 10 -26 10 -27 0 -27 0 -21 60 4 37 3 60 -3 60 -6 0 -10 -31 -10 -70z"/>
<path d="M1590 320 l0 -70 35 0 c19 0 35 5 35 10 0 6 -13 10 -28 10 -24 0 -28 4 -27 23 1 18 7 21 28 19 15 -2 27 1 27 7 0 6 -10 11 -23 11 -13 0 -26 3 -30 6 -12 12 6 34 29 34 13 0 24 5 24 10 0 6 -16 10 -35 10 l-35 0 0 -70z"/>
<path d="M237 203 c-4 -3 -7 -35 -7 -70 l0 -63 38 0 c26 0 45 7 57 20 25 27 22 80 -6 102 -21 18 -69 24 -82 11z m77 -29 c32 -32 11 -84 -34 -84 -29 0 -30 1 -30 50 0 46 2 50 24 50 14 0 32 -7 40 -16z"/>
<path d="M390 140 l0 -70 35 0 c19 0 35 5 35 10 0 6 -13 10 -30 10 -23 0 -30 4 -30 20 0 16 7 20 30 20 17 0 30 5 30 10 0 6 -13 10 -30 10 -23 0 -30 4 -30 20 0 16 7 20 30 20 17 0 30 5 30 10 0 6 -16 10 -35 10 l-35 0 0 -70z"/>
<path d="M525 185 c-28 -27 -31 -45 -14 -78 16 -30 28 -37 66 -37 22 0 37 7 47 22 26 37 20 48 -24 48 -22 0 -40 -4 -40 -10 0 -5 14 -10 30 -10 36 0 39 -12 5 -30 -20 -11 -28 -10 -50 4 -27 18 -34 63 -13 84 15 15 61 15 76 0 6 -6 15 -8 19 -4 11 11 -27 36 -54 36 -13 0 -35 -11 -48 -25z"/>
<path d="M700 190 c-26 -26 -26 -81 -2 -103 29 -26 77 -22 101 9 30 38 27 44 -24 44 -54 0 -60 -18 -7 -22 l37 -3 -27 -18 c-53 -36 -108 15 -74 69 18 26 38 29 91 10 17 -7 17 -5 -4 13 -29 26 -65 27 -91 1z"/>
<path d="M860 140 l0 -70 35 0 c19 0 35 5 35 10 0 6 -13 10 -30 10 -23 0 -30 4 -30 20 0 16 7 20 30 20 17 0 30 5 30 10 0 6 -13 10 -30 10 -23 0 -30 4 -30 20 0 16 7 20 30 20 17 0 30 5 30 10 0 6 -16 10 -35 10 l-35 0 0 -70z"/>
<path d="M980 141 c0 -46 4 -71 11 -71 8 0 9 17 4 55 -3 30 -4 55 -2 55 3 0 20 -25 38 -55 18 -30 37 -55 41 -55 4 0 8 24 8 54 0 30 3 61 6 70 3 9 1 16 -5 16 -7 0 -11 -22 -11 -57 l-1 -58 -35 55 c-19 30 -39 57 -44 58 -6 2 -10 -26 -10 -67z"/>
<path d="M1130 140 l0 -70 38 0 c47 0 72 24 72 68 0 43 -31 72 -75 72 l-35 0 0 -70z m86 25 c24 -37 6 -75 -36 -75 -29 0 -30 1 -30 50 0 47 2 50 25 50 15 0 31 -10 41 -25z"/>
<path d="M1300 188 c-41 -44 -15 -118 43 -118 38 0 50 7 66 37 17 33 14 51 -14 78 -30 31 -68 32 -95 3z m89 -12 c20 -24 9 -69 -21 -85 -24 -14 -28 -14 -47 3 -23 21 -28 65 -9 84 17 17 63 15 77 -2z"/>
<path d="M1460 140 c0 -38 4 -70 9 -70 5 0 7 27 5 61 l-4 60 27 -3 c34 -4 45 -37 15 -45 -20 -5 -20 -6 -5 -39 9 -19 23 -34 30 -34 10 0 10 5 -3 25 -15 22 -15 26 0 40 9 9 16 22 16 29 0 21 -35 46 -63 46 -27 0 -27 -1 -27 -70z"/>
<path d="M1590 140 c0 -40 4 -70 10 -70 6 0 10 14 10 30 0 25 4 30 25 30 14 0 25 5 25 10 0 6 -11 10 -25 10 -18 0 -25 5 -25 20 0 15 7 20 25 20 14 0 25 5 25 10 0 6 -16 10 -35 10 l-35 0 0 -70z"/>
</g>
</svg></svg>
